<svg xmlns="http://www.w3.org/2000/svg" xmlns:xlink="http://www.w3.org/1999/xlink" viewBox="0,0,256,256" width="96px" height="96px" fill-rule="nonzero"><defs><clipPath id="clip-1"><path d="M0,256v-256h256v256zM187.26364,200.82838l-2.42971,2.42971c-6.7134,-3.82702 -15.46035,-2.8846 -21.1722,2.82725l-3.42025,3.42025c-6.84049,6.84049 -6.84049,18.03402 0,24.87451c6.84049,6.84049 17.72309,7.15142 25.18544,0l3.42025,-3.42025c5.44879,-5.96772 6.35067,-14.53368 2.52496,-21.18084l2.41385,-2.41385c6.65427,3.8186 15.26317,2.87378 21.49036,-2.83448l3.42025,-3.42025c6.52956,-7.15142 6.52956,-18.03402 -0.31093,-24.87451c-6.84049,-6.84049 -18.03402,-6.84049 -24.87451,0l-3.42025,3.42025c-5.71186,5.71186 -6.65427,14.45881 -2.82725,21.1722z" id="overlayBgMask" fill="none" opacity="0.5"></path></clipPath></defs><g clip-path="url(#clip-1)" fill="none" fill-rule="nonzero" stroke="none" stroke-width="1" stroke-linecap="butt" stroke-linejoin="miter" stroke-miterlimit="10" stroke-dasharray="" stroke-dashoffset="0" font-family="none" font-weight="none" font-size="none" text-anchor="none" style="mix-blend-mode: normal"><g transform="scale(5.33333,5.33333)"><path d="M24,5c-10.49341,0 -19,8.50659 -19,19c0,10.49341 8.50659,19 19,19c10.49341,0 19,-8.50659 19,-19c0,-10.49341 -8.50659,-19 -19,-19z" fill="#039be5"></path><path d="M26.572,29.036h4.917l0.772,-4.995h-5.69v-2.73c0,-2.075 0.678,-3.915 2.619,-3.915h3.119v-4.359c-0.548,-0.074 -1.707,-0.236 -3.897,-0.236c-4.573,0 -7.254,2.415 -7.254,7.917v3.323h-4.701v4.995h4.701v13.729c0.931,0.14 1.874,0.235 2.842,0.235c0.875,0 1.729,-0.08 2.572,-0.194z" fill="#ffffff"></path></g></g><g fill="none" fill-rule="nonzero" stroke="none" stroke-width="1" stroke-linecap="butt" stroke-linejoin="miter" stroke-miterlimit="10" stroke-dasharray="" stroke-dashoffset="0" font-family="none" font-weight="none" font-size="none" text-anchor="none" style="mix-blend-mode: normal"><g transform="translate(159.86674,176.13326) scale(2.66513,2.66513)" id="overlay"><path d="M11.3,10.7c-2.2,-2.2 -2.2,-5.8 0,-8l1.1,-1.1c2.2,-2.2 5.8,-2.2 8,0c2.2,2.2 2.2,5.7 0.1,8l-1.1,1.1c-2.4,2.2 -5.9,2.2 -8.1,0zM18.3,3.8c-1,-1 -2.7,-1 -3.7,0l-1.1,1.1c-1,1 -1,2.7 0,3.7c1,1 2.7,1 3.8,0l1.1,-1.1c0.9,-1 0.9,-2.7 -0.1,-3.7zM1.7,20.3c-2.2,-2.2 -2.2,-5.8 0,-8l1.1,-1.1c2.2,-2.2 5.8,-2.2 8,0c2.2,2.2 2.2,5.7 0.1,8l-1.1,1.1c-2.4,2.3 -5.9,2.2 -8.1,0zM8.7,13.4c-1,-1 -2.7,-1 -3.7,0l-1.1,1.1c-1,1 -1,2.7 0,3.7c1,1 2.7,1 3.8,0l1.1,-1.1c0.9,-1 0.9,-2.7 -0.1,-3.7z" fill="#1976d2"></path><path d="M6.5,15.5c-0.6,-0.6 -0.6,-1.5 0,-2.1l6.9,-6.9c0.6,-0.6 1.5,-0.6 2.1,0c0.6,0.6 0.6,1.5 0,2.1l-6.9,6.9c-0.5,0.6 -1.5,0.6 -2.1,0z" fill="#42a5f5"></path></g></g></svg>