<svg xmlns="http://www.w3.org/2000/svg" xmlns:xlink="http://www.w3.org/1999/xlink" viewBox="0,0,256,256" width="48px" height="48px" fill-rule="nonzero"><g fill="#dddddd" fill-rule="nonzero" stroke="#dddddd" stroke-width="1" stroke-linecap="butt" stroke-linejoin="round" stroke-miterlimit="10" stroke-dasharray="" stroke-dashoffset="0" font-family="none" font-weight="none" font-size="none" text-anchor="none" style="mix-blend-mode: normal"><path transform="scale(10.66667,10.66667)" d="M21.23242,3.22266c0.32885,0.19297 0.60194,0.56069 0.70313,0.9375c0.10119,0.37681 0.07589,0.74656 -0.00977,1.12891l0.00586,-0.02344c0,0 -2.75223,13.82021 -2.81641,14.15039l-0.00195,0.00195c-0.08048,0.40909 -0.25949,0.7109 -0.54687,1.00586c-0.28738,0.29496 -0.73656,0.57617 -1.30469,0.57617c-0.95211,0 -1.3635,-0.55671 -1.41602,-0.63086l-2.875,-2.66016l-2.34766,1.98633l-0.02149,0.01563c0,0 -0.33334,0.29492 -0.87695,0.29492c-0.12663,0 -0.26339,-0.02817 -0.40039,-0.07031c-0.03893,-0.00795 -0.05898,-0.00762 -0.08789,-0.01758c-0.01774,-0.00611 -0.03337,-0.01644 -0.05078,-0.02344l0.02344,0.00586c-0.0084,-0.00338 -0.01702,-0.00426 -0.02539,-0.00781c-0.06005,-0.02443 -0.11983,-0.05044 -0.17383,-0.08398c-0.14073,-0.08741 -0.25545,-0.19813 -0.35156,-0.32031c-0.19222,-0.24437 -0.33064,-0.53712 -0.47266,-0.98633h0.00195c-0.20091,-0.63468 -1.04546,-3.15852 -1.24219,-3.74805c-0.55462,-0.22197 -2.88403,-1.15408 -3.66406,-1.46484v0.00195c-0.23076,-0.09177 -0.50686,-0.21498 -0.7793,-0.47852c-0.27243,-0.26353 -0.49805,-0.72383 -0.49805,-1.17578c0,-0.56026 0.34329,-1.07254 0.65234,-1.30859c0.30834,-0.2355 0.58751,-0.32097 0.65625,-0.34961c2.00174,-0.84239 5.90834,-2.48709 9.38477,-3.94922c1.73821,-0.73106 3.36894,-1.41546 4.59961,-1.93164c1.23066,-0.51618 2.00353,-0.84102 2.21875,-0.92578c0.23296,-0.09182 0.49814,-0.17493 0.78711,-0.1875c0.28896,-0.01257 0.60084,0.04531 0.92969,0.23828z" id="strokeMainSVG"></path></g><g fill="#000000" fill-rule="nonzero" stroke="none" stroke-width="1" stroke-linecap="butt" stroke-linejoin="miter" stroke-miterlimit="10" stroke-dasharray="" stroke-dashoffset="0" font-family="none" font-weight="none" font-size="none" text-anchor="none" style="mix-blend-mode: normal"><g transform="scale(10.66667,10.66667)"><path d="M20.30273,2.98438c-0.28897,0.01257 -0.55415,0.09568 -0.78711,0.1875c-0.21522,0.08476 -0.98809,0.4096 -2.21875,0.92578c-1.23066,0.51618 -2.8614,1.20058 -4.59961,1.93164c-3.47642,1.46212 -7.38303,3.10683 -9.38477,3.94922c-0.06874,0.02864 -0.34791,0.11411 -0.65625,0.34961c-0.30905,0.23605 -0.65234,0.74834 -0.65234,1.30859c0,0.45195 0.22561,0.91225 0.49805,1.17578c0.27243,0.26353 0.54854,0.38674 0.7793,0.47852v-0.00195c0.78003,0.31076 3.10944,1.24288 3.66406,1.46484c0.19673,0.58953 1.04128,3.11337 1.24219,3.74805h-0.00195c0.14201,0.44921 0.28043,0.74196 0.47266,0.98633c0.09611,0.12218 0.21084,0.2329 0.35156,0.32031c0.05399,0.03354 0.11378,0.05955 0.17383,0.08398c0.00837,0.00355 0.01699,0.00443 0.02539,0.00781l-0.02344,-0.00586c0.01741,0.007 0.03304,0.01733 0.05078,0.02344c0.02891,0.00996 0.04896,0.00963 0.08789,0.01758c0.137,0.04215 0.27376,0.07031 0.40039,0.07031c0.54361,0 0.87695,-0.29492 0.87695,-0.29492l0.02149,-0.01563l2.34766,-1.98633l2.875,2.66016c0.05251,0.07415 0.4639,0.63086 1.41602,0.63086c0.56813,0 1.01731,-0.28121 1.30469,-0.57617c0.28738,-0.29496 0.4664,-0.59677 0.54688,-1.00586l0.00195,-0.00195c0.06418,-0.33018 2.81641,-14.15039 2.81641,-14.15039l-0.00586,0.02344c0.08566,-0.38235 0.11095,-0.7521 0.00977,-1.12891c-0.10119,-0.37681 -0.37428,-0.74453 -0.70312,-0.9375c-0.32885,-0.19297 -0.64072,-0.25085 -0.92969,-0.23828zM19.9082,5.17383c-0.10876,0.54603 -2.57419,12.93205 -2.72656,13.70898l-4.15234,-3.8418l-2.80664,2.37305l0.77734,-3.03906c0,0 5.36255,-5.42814 5.68555,-5.74414c0.26,-0.253 0.31445,-0.34169 0.31445,-0.42969c0,-0.117 -0.06022,-0.20117 -0.19922,-0.20117c-0.125,0 -0.29477,0.11978 -0.38477,0.17578c-1.14365,0.713 -6.01473,3.4889 -8.41016,4.85156c-0.14416,-0.0578 -2.30846,-0.92689 -3.47461,-1.39258c2.07426,-0.873 5.62991,-2.36896 8.94141,-3.76172c1.73791,-0.73094 3.36817,-1.41595 4.59766,-1.93164c1.03785,-0.43531 1.57923,-0.6607 1.83789,-0.76758zM17.15234,19.02539h0.00195c-0.00005,0.00023 -0.00185,0.00556 -0.00195,0.00586c0.00127,-0.00646 -0.00095,-0.0008 0,-0.00586z"></path></g></g></svg>